<svg width="36" height="43" viewBox="0 0 36 43" fill="none" xmlns="http://www.w3.org/2000/svg">
<path d="M9 12L11 10M11 10L18 3L25 10M11 10V20C11 20.2652 11.1054 20.5196 11.2929 20.7071C11.4804 20.8946 11.7348 21 12 21H15M25 10L27 12M25 10V20C25 20.2652 24.8946 20.5196 24.7071 20.7071C24.5196 20.8946 24.2652 21 24 21H21M15 21C15.2652 21 15.5196 20.8946 15.7071 20.7071C15.8946 20.5196 16 20.2652 16 20V16C16 15.7348 16.1054 15.4804 16.2929 15.2929C16.4804 15.1054 16.7348 15 17 15H19C19.2652 15 19.5196 15.1054 19.7071 15.2929C19.8946 15.4804 20 15.7348 20 16V20C20 20.2652 20.1054 20.5196 20.2929 20.7071C20.4804 20.8946 20.7348 21 21 21M15 21H21" stroke="#AAAEB4" stroke-width="2"/>
<path d="M6.888 30.496C6.88 30.552 6.868 30.64 6.852 30.76C6.836 30.872 6.82 30.992 6.804 31.12C6.796 31.24 6.792 31.348 6.792 31.444C6.792 31.66 6.792 31.908 6.792 32.188C6.792 32.468 6.792 32.748 6.792 33.028C6.792 33.3 6.792 33.54 6.792 33.748C6.792 33.908 6.792 34.14 6.792 34.444C6.792 34.74 6.792 35.076 6.792 35.452C6.792 35.82 6.792 36.204 6.792 36.604C6.792 36.996 6.792 37.38 6.792 37.756C6.792 38.124 6.792 38.452 6.792 38.74C6.792 39.028 6.792 39.252 6.792 39.412C6.792 39.74 6.7 39.992 6.516 40.168C6.34 40.352 6.056 40.444 5.664 40.444C5.48 40.444 5.28 40.44 5.064 40.432C4.856 40.424 4.648 40.412 4.44 40.396C4.232 40.38 4.036 40.364 3.852 40.348L3.744 39.16C4.008 39.208 4.26 39.244 4.5 39.268C4.748 39.284 4.952 39.292 5.112 39.292C5.272 39.292 5.384 39.26 5.448 39.196C5.52 39.124 5.556 39.008 5.556 38.848C5.556 38.76 5.556 38.588 5.556 38.332C5.564 38.068 5.568 37.76 5.568 37.408C5.568 37.056 5.568 36.688 5.568 36.304C5.568 35.92 5.568 35.552 5.568 35.2C5.568 34.848 5.568 34.544 5.568 34.288C5.568 34.024 5.568 33.844 5.568 33.748C5.568 33.612 5.568 33.404 5.568 33.124C5.568 32.844 5.568 32.548 5.568 32.236C5.568 31.924 5.568 31.656 5.568 31.432C5.568 31.296 5.556 31.132 5.532 30.94C5.516 30.74 5.496 30.592 5.472 30.496H6.888ZM1.272 32.476C1.448 32.5 1.624 32.52 1.8 32.536C1.984 32.544 2.168 32.548 2.352 32.548C2.456 32.548 2.652 32.548 2.94 32.548C3.236 32.548 3.592 32.548 4.008 32.548C4.424 32.548 4.868 32.548 5.34 32.548C5.82 32.548 6.296 32.548 6.768 32.548C7.248 32.548 7.696 32.548 8.112 32.548C8.536 32.548 8.896 32.548 9.192 32.548C9.488 32.548 9.692 32.548 9.804 32.548C9.956 32.548 10.132 32.544 10.332 32.536C10.54 32.52 10.72 32.504 10.872 32.488V33.724C10.704 33.716 10.524 33.712 10.332 33.712C10.14 33.704 9.968 33.7 9.816 33.7C9.704 33.7 9.5 33.7 9.204 33.7C8.908 33.7 8.552 33.7 8.136 33.7C7.72 33.7 7.272 33.7 6.792 33.7C6.32 33.7 5.844 33.7 5.364 33.7C4.892 33.7 4.448 33.7 4.032 33.7C3.616 33.7 3.26 33.7 2.964 33.7C2.668 33.7 2.468 33.7 2.364 33.7C2.18 33.7 1.992 33.704 1.8 33.712C1.616 33.712 1.44 33.72 1.272 33.736V32.476ZM4.164 35.488C4.036 35.752 3.876 36.036 3.684 36.34C3.492 36.644 3.284 36.952 3.06 37.264C2.844 37.576 2.632 37.864 2.424 38.128C2.216 38.392 2.028 38.616 1.86 38.8L0.828 38.104C1.028 37.912 1.232 37.692 1.44 37.444C1.656 37.188 1.868 36.92 2.076 36.64C2.284 36.352 2.476 36.068 2.652 35.788C2.828 35.5 2.976 35.228 3.096 34.972L4.164 35.488ZM9.24 34.96C9.4 35.152 9.572 35.384 9.756 35.656C9.948 35.92 10.14 36.204 10.332 36.508C10.524 36.804 10.704 37.092 10.872 37.372C11.04 37.652 11.184 37.9 11.304 38.116L10.2 38.728C10.072 38.48 9.924 38.212 9.756 37.924C9.596 37.628 9.424 37.332 9.24 37.036C9.064 36.74 8.884 36.46 8.7 36.196C8.524 35.932 8.36 35.708 8.208 35.524L9.24 34.96ZM13.164 34.648C13.3 34.656 13.464 34.668 13.656 34.684C13.856 34.692 14.068 34.7 14.292 34.708C14.524 34.716 14.744 34.72 14.952 34.72C15.112 34.72 15.332 34.72 15.612 34.72C15.892 34.72 16.208 34.72 16.56 34.72C16.92 34.72 17.296 34.72 17.688 34.72C18.08 34.72 18.468 34.72 18.852 34.72C19.244 34.72 19.612 34.72 19.956 34.72C20.3 34.72 20.604 34.72 20.868 34.72C21.132 34.72 21.336 34.72 21.48 34.72C21.768 34.72 22.028 34.712 22.26 34.696C22.492 34.672 22.68 34.656 22.824 34.648V36.136C22.688 36.128 22.496 36.116 22.248 36.1C22 36.084 21.744 36.076 21.48 36.076C21.344 36.076 21.14 36.076 20.868 36.076C20.604 36.076 20.3 36.076 19.956 36.076C19.612 36.076 19.244 36.076 18.852 36.076C18.468 36.076 18.08 36.076 17.688 36.076C17.296 36.076 16.92 36.076 16.56 36.076C16.208 36.076 15.892 36.076 15.612 36.076C15.332 36.076 15.112 36.076 14.952 36.076C14.624 36.076 14.296 36.084 13.968 36.1C13.64 36.108 13.372 36.12 13.164 36.136V34.648ZM30.0687 31.012C30.0047 31.172 29.9327 31.348 29.8527 31.54C29.7807 31.732 29.7007 31.96 29.6127 32.224C29.5487 32.432 29.4607 32.712 29.3487 33.064C29.2367 33.416 29.1087 33.808 28.9647 34.24C28.8287 34.664 28.6847 35.104 28.5327 35.56C28.3807 36.008 28.2327 36.444 28.0887 36.868C27.9447 37.292 27.8087 37.676 27.6807 38.02C27.5607 38.364 27.4567 38.636 27.3687 38.836L25.9767 38.884C26.0807 38.644 26.2007 38.34 26.3367 37.972C26.4807 37.596 26.6287 37.188 26.7807 36.748C26.9327 36.3 27.0847 35.844 27.2367 35.38C27.3967 34.908 27.5447 34.456 27.6807 34.024C27.8167 33.584 27.9407 33.184 28.0527 32.824C28.1647 32.464 28.2487 32.172 28.3047 31.948C28.3847 31.66 28.4407 31.424 28.4727 31.24C28.5127 31.056 28.5447 30.876 28.5687 30.7L30.0687 31.012ZM32.3007 34.96C32.5087 35.28 32.7367 35.656 32.9847 36.088C33.2407 36.512 33.4927 36.956 33.7407 37.42C33.9887 37.884 34.2167 38.332 34.4247 38.764C34.6407 39.196 34.8127 39.572 34.9407 39.892L33.6687 40.468C33.5407 40.124 33.3767 39.728 33.1767 39.28C32.9847 38.824 32.7687 38.356 32.5287 37.876C32.2967 37.396 32.0607 36.944 31.8207 36.52C31.5807 36.096 31.3527 35.744 31.1367 35.464L32.3007 34.96ZM25.6647 38.488C25.9447 38.48 26.2847 38.46 26.6847 38.428C27.0927 38.396 27.5287 38.356 27.9927 38.308C28.4567 38.26 28.9327 38.212 29.4207 38.164C29.9087 38.116 30.3807 38.064 30.8367 38.008C31.3007 37.952 31.7287 37.9 32.1207 37.852C32.5127 37.804 32.8407 37.76 33.1047 37.72L33.4167 38.92C33.1287 38.952 32.7767 38.992 32.3607 39.04C31.9527 39.088 31.5087 39.14 31.0287 39.196C30.5487 39.252 30.0567 39.308 29.5527 39.364C29.0487 39.42 28.5567 39.476 28.0767 39.532C27.6047 39.58 27.1647 39.624 26.7567 39.664C26.3567 39.704 26.0167 39.736 25.7367 39.76C25.5847 39.776 25.4167 39.8 25.2327 39.832C25.0487 39.856 24.8647 39.88 24.6807 39.904L24.4647 38.512C24.6567 38.512 24.8607 38.512 25.0767 38.512C25.2927 38.504 25.4887 38.496 25.6647 38.488Z" fill="#AAAEB4"/>
</svg>
